<svg width="60" height="60" viewBox="0 0 60 60" fill="none" xmlns="http://www.w3.org/2000/svg">
<path d="M23.455 3.92412C23.4991 4.83125 23.5883 5.73574 23.7224 6.63422C24.755 13.5859 28.3889 20.4795 33.9546 26.0453C39.5203 31.611 46.4139 35.2447 53.3659 36.2775L23.455 3.92412ZM23.455 3.92412C23.488 3.91589 23.521 3.90774 23.554 3.89964L23.4349 3.41402L22.9351 3.429C22.9363 3.4662 22.9374 3.50341 22.9387 3.54061C18.4269 4.73653 14.1631 7.09976 10.6315 10.6314C7.00719 14.2557 4.52476 18.717 3.36233 23.5793C3.33429 23.5779 3.30625 23.5765 3.2782 23.5752L3.08628 23.5662L2.93769 23.688L2.93054 23.6938L3.2475 24.0805L3.2543 24.082L23.455 3.92412ZM57.5395 34.4703L57.1021 34.466C55.9777 34.4547 54.8299 34.3632 53.6758 34.1917L53.7492 33.6972L53.6757 34.1917C47.1537 33.2229 40.684 29.7926 35.4457 24.5542C30.2074 19.3158 26.777 12.8462 25.8083 6.32448C25.6376 5.17548 25.5458 4.0326 25.534 2.91348L25.5295 2.47621L25.9622 2.41342C26.8438 2.28552 27.7309 2.19963 28.6206 2.15607L29.1461 2.13034L29.1451 2.65642C29.1431 3.67796 29.2195 4.72804 29.3778 5.79422C30.2294 11.5261 33.2822 17.2873 37.9977 22.0027C38.3117 22.3165 38.8211 22.3166 39.1352 22.0027L57.5395 34.4703ZM57.5395 34.4703L57.602 34.0374M57.5395 34.4703L57.602 34.0374M57.602 34.0374C57.7292 33.1563 57.8146 32.2696 57.858 31.3803L57.8836 30.856H57.3586C57.342 30.856 57.3267 30.8564 57.3194 30.8566L57.3104 30.8569L57.3083 30.8569H57.3082C56.2985 30.8569 55.2602 30.7787 54.206 30.6221L54.1325 31.1167L54.206 30.6221C53.7665 30.5568 53.4633 30.1478 53.5286 29.7085L53.5286 29.7083C53.5938 29.2691 54.0031 28.9656 54.4424 29.0309C55.4357 29.1784 56.4118 29.2504 57.3634 29.2483L57.8851 29.2472L57.8618 28.726C57.5504 21.7548 54.6879 15.2435 49.7223 10.2779C44.6083 5.16369 37.9853 2.4553 31.2748 2.15106L30.7534 2.12742L30.7521 2.64934C30.7499 3.59543 30.8224 4.56903 30.9692 5.55769L30.9692 5.55773M57.602 34.0374L30.9692 5.55773M30.9692 5.55773C31.7752 10.9832 34.6846 16.4143 39.1352 20.8649M30.9692 5.55773L39.1352 20.8649M39.1352 20.8649C39.4493 21.1792 39.4492 21.6886 39.1353 22.0026L39.1352 20.8649ZM2.6906 31.3835L2.1374 31.3646L2.17465 31.9169C2.62847 38.6451 5.46539 44.9096 10.2778 49.7221C15.2282 54.6723 21.5923 57.3685 28.0813 57.8121L28.6348 57.8499L28.6151 57.2954C28.5884 56.5483 28.5196 55.8032 28.4089 55.0639C27.6028 49.6386 24.6934 44.2076 20.243 39.757C15.7924 35.3064 10.3611 32.3969 4.93569 31.591C4.17799 31.4783 3.42685 31.4087 2.6906 31.3835ZM30.2264 57.3824L30.2406 57.8811L30.7393 57.868C31.6258 57.8449 32.5107 57.7797 33.3911 57.6726L33.846 57.6173L33.8304 57.1592C33.7978 56.2011 33.7107 55.2456 33.5696 54.2974C32.6007 47.7756 29.1703 41.3059 23.932 36.0677C18.6935 30.8294 12.224 27.3989 5.7021 26.4302L5.70208 26.4302C4.73734 26.2869 3.77376 26.1996 2.82478 26.1685L2.36679 26.1535L2.31199 26.6084C2.20652 27.484 2.14163 28.3686 2.11849 29.2602L2.10554 29.7591L2.6044 29.773C3.46382 29.7969 4.32101 29.8726 5.17133 29.9996L5.17172 29.9997C10.9037 30.8513 16.6648 33.904 21.3803 38.6195C26.0958 43.335 29.1485 49.0961 30.0001 54.8279L30.0001 54.8283C30.1265 55.6744 30.202 56.5273 30.2264 57.3824ZM35.4253 56.7586L35.4535 57.3504L36.0322 57.2231C41.0527 56.1188 45.8255 53.6184 49.7221 49.7221C53.3798 46.0645 55.8962 41.5673 57.093 36.6644L56.5987 36.4607L56.6103 36.0655C55.5488 36.0342 54.4901 35.9399 53.4398 35.783L53.4394 35.7829C46.606 34.7678 39.8076 31.1911 34.3082 25.6917C28.8087 20.1922 25.232 13.3938 24.217 6.56075L24.2169 6.56043C24.0606 5.51312 23.9664 4.45748 23.9347 3.39905L23.9162 2.78122L23.3159 2.92841C18.5349 4.10062 14.0054 6.55038 10.2779 10.2778C6.46213 14.0936 3.88812 18.823 2.7591 23.9734L2.45075 25.3801L3.42223 24.5838C4.26452 24.6295 5.10424 24.7146 5.93862 24.839L5.93883 24.839C12.7718 25.8541 19.5703 29.4308 25.0698 34.9302C30.5691 40.4296 34.146 47.2279 35.1611 54.0612L35.1611 54.0613C35.2942 54.9554 35.3824 55.8556 35.4253 56.7586ZM30 0.5C37.8807 0.5 45.2871 3.56802 50.8596 9.14028C56.4322 14.7129 59.5 22.1192 59.5 30C59.5 37.8808 56.4322 45.2871 50.8596 50.8597C45.2871 56.432 37.8807 59.5 30 59.5C22.1193 59.5 14.7129 56.432 9.14039 50.8597C3.56779 45.2871 0.5 37.8808 0.5 30C0.5 22.1192 3.56779 14.7129 9.14039 9.14027C14.7129 3.56802 22.1193 0.5 30 0.5ZM45.5832 27.648L45.5822 27.647C45.4338 27.4994 45.3476 27.2912 45.3474 27.0799C45.3478 26.8665 45.4326 26.6618 45.5833 26.5106C45.7344 26.3603 45.9386 26.2756 46.1517 26.275C46.3651 26.2756 46.5696 26.3605 46.7207 26.5113C46.8692 26.6599 46.9558 26.8688 46.956 27.0787C46.955 27.2922 46.8702 27.4968 46.7198 27.6484C46.571 27.7971 46.3619 27.8836 46.1517 27.8836C45.9414 27.8836 45.732 27.7969 45.5832 27.648Z" fill="#F1CDB3" stroke="black"/>
</svg>
